<?xml version="1.0" encoding="UTF-8"?>
<svg xmlns="http://www.w3.org/2000/svg" width="100%" height="auto" viewBox="0 0 588 875.999991" preserveAspectRatio="xMidYMid meet" style="display:block;max-width:100%;height:auto">
  <defs>
    <linearGradient id="aaBrown" x1="0" y1="167.25" x2="0" y2="708.75" gradientUnits="userSpaceOnUse">
      <stop offset="0%" stop-color="#a16c3f"/>
      <stop offset="35%" stop-color="#9d693d"/>
      <stop offset="70%" stop-color="#7e4e2c"/>
      <stop offset="100%" stop-color="#7e4d2c"/>
    </linearGradient>
  </defs>
  <g transform="translate(97.638310 167.250000) scale(0.75)" fill="url(#aaBrown)" stroke="none" shape-rendering="geometricPrecision">
    <g transform="translate(-130.184413,944.855123) scale(0.100000,-0.100000)">
      <path d="M3916 9408 c-3 -23 -11 -88 -17 -143 -21 -198 -98 -549 -170 -780 -44 -140 -155 -440 -212 -570 -38 -89 -61 -139 -149 -330 -89 -192 -195 -436 -239 -552 -79 -210 -108 -377 -89 -529 14 -111 56 -239 112 -339 60 -108 184 -237 286 -298 44 -27 108 -60 143 -74 138 -56 336 -77 489 -52 92 14 216 59 307 110 55 31 108 74 179 144 90 89 106 111 152 205 29 58 61 141 73 185 17 63 22 110 22 220 1 113 -3 155 -21 220 -12 44 -32 112 -45 150 -31 89 -138 337 -249 575 -151 325 -305 705 -373 925 -83 269 -145 562 -170 805 -9 91 -19 167 -20 168 -2 2 -6 -16 -9 -40z m-545 -2820 c157 -112 344 -304 445 -454 29 -45 56 -89 60 -97 3 -8 1 -18 -5 -21 -5 -4 -53 2 -105 13 -58 12 -119 32 -158 53 -36 19 -93 63 -134 104 -55 54 -81 91 -112 155 -40 84 -62 168 -62 241 0 25 5 38 13 38 8 0 34 -14 58 -32z M1512 7103 c-58 -181 -77 -249 -111 -408 -106 -499 -128 -1093 -61 -1640 24 -194 78 -459 130 -644 78 -276 187 -546 313 -776 130 -237 307 -482 477 -659 113 -118 299 -272 434 -362 134 -87 308 -180 441 -234 113 -46 265 -91 410 -121 74 -15 153 -22 305 -26 132 -4 242 -1 310 7 142 16 379 77 525 134 225 88 444 216 648 379 137 109 260 229 372 362 175 210 300 403 425 660 233 478 344 912 395 1542 16 199 21 668 6 677 -4 3 -41 -20 -82 -51 -168 -128 -423 -280 -639 -381 -351 -163 -727 -278 -1100 -336 -238 -37 -330 -45 -560 -52 -518 -16 -979 59 -1419 231 -193 75 -375 172 -531 284 -99 71 -252 209 -330 299 -121 140 -226 318 -275 467 -13 42 -34 123 -45 181 -25 130 -27 313 -4 473 8 62 14 115 11 117 -2 2 -22 -53 -45 -123z m333 -1590 c104 -85 301 -215 440 -290 360 -194 829 -333 1295 -385 154 -17 750 -17 890 0 310 37 485 70 730 133 288 75 545 170 819 300 79 38 146 67 149 65 8 -8 -28 -320 -54 -466 -63 -360 -183 -720 -332 -1000 -150 -283 -298 -487 -492 -680 -59 -58 -141 -133 -183 -167 -174 -140 -396 -267 -588 -336 -119 -43 -288 -83 -404 -97 -116 -13 -288 -13 -395 0 -113 14 -328 70 -443 116 -202 79 -427 217 -607 372 -107 92 -258 254 -349 373 -27 37 -82 116 -121 178 -139 218 -247 445 -329 691 -65 193 -113 382 -145 570 -35 203 -46 313 -53 560 l-6 215 49 -43 c27 -23 85 -72 129 -109z M2625 4586 c-133 -31 -262 -93 -352 -171 -34 -29 -43 -43 -43 -68 0 -18 9 -47 20 -65 20 -32 21 -33 73 -25 78 12 304 8 372 -6 92 -19 212 -60 290 -99 115 -57 242 -150 362 -265 101 -97 115 -107 140 -101 52 12 93 33 100 50 4 10 -1 47 -10 82 -36 136 -142 322 -245 429 -98 102 -237 187 -362 223 -96 27 -262 35 -345 16z M4915 4581 c-159 -40 -272 -106 -395 -230 -42 -42 -97 -111 -123 -153 -82 -132 -147 -307 -134 -360 5 -17 18 -30 38 -37 18 -6 46 -11 62 -11 25 0 50 19 141 108 61 60 147 132 190 162 110 74 267 146 383 177 81 21 122 26 238 27 77 0 167 -2 201 -7 l60 -8 17 36 c23 49 22 90 -5 116 -46 43 -167 116 -239 143 -152 57 -304 70 -434 37z"/>
    </g>
  </g>
</svg>
